<svg xmlns="http://www.w3.org/2000/svg" xmlns:xlink="http://www.w3.org/1999/xlink" width="500" zoomAndPan="magnify" viewBox="0 0 375 374.999991" height="500" preserveAspectRatio="xMidYMid meet" version="1.0"><defs><filter x="0%" y="0%" width="100%" height="100%" id="6eca58a691"><feColorMatrix values="0 0 0 0 1 0 0 0 0 1 0 0 0 0 1 0 0 0 1 0" color-interpolation-filters="sRGB"/></filter><g/><clipPath id="0403513209"><path d="M 30.566406 162.441406 L 75.90625 162.441406 L 75.90625 199.523438 L 30.566406 199.523438 Z M 30.566406 162.441406 " clip-rule="nonzero"/></clipPath><clipPath id="753e150f87"><path d="M 48.398438 162.441406 L 70.484375 162.441406 C 72.222656 162.441406 73.855469 163.273438 74.871094 164.683594 C 75.886719 166.09375 76.164062 167.90625 75.613281 169.554688 L 67.996094 192.410156 C 66.578125 196.65625 62.601562 199.523438 58.121094 199.523438 L 36.039062 199.523438 C 34.300781 199.523438 32.667969 198.6875 31.652344 197.28125 C 30.636719 195.871094 30.359375 194.058594 30.910156 192.410156 L 38.527344 169.554688 C 39.945312 165.304688 43.921875 162.441406 48.398438 162.441406 Z M 48.398438 162.441406 " clip-rule="nonzero"/></clipPath><mask id="5a447a5353"><g filter="url(#6eca58a691)"><rect x="-37.5" width="450" fill="#000000" y="-37.499999" height="449.999989" fill-opacity="0.8"/></g></mask><clipPath id="880345f62f"><path d="M 2.78125 0.613281 L 48.125 0.613281 L 48.125 37.699219 L 2.78125 37.699219 Z M 2.78125 0.613281 " clip-rule="nonzero"/></clipPath><clipPath id="78d2b93a5e"><path d="M 20.617188 0.613281 L 42.699219 0.613281 C 44.4375 0.613281 46.070312 1.449219 47.085938 2.859375 C 48.101562 4.269531 48.378906 6.082031 47.828125 7.730469 L 40.210938 30.582031 C 38.792969 34.832031 34.816406 37.699219 30.339844 37.699219 L 8.253906 37.699219 C 6.515625 37.699219 4.886719 36.863281 3.871094 35.453125 C 2.851562 34.042969 2.578125 32.230469 3.125 30.582031 L 10.746094 7.730469 C 12.160156 3.480469 16.136719 0.613281 20.617188 0.613281 Z M 20.617188 0.613281 " clip-rule="nonzero"/></clipPath><clipPath id="277e62dc7a"><rect x="0" width="51" y="0" height="38"/></clipPath></defs><rect x="-37.5" width="450" fill="#ffffff" y="-37.499999" height="449.999989" fill-opacity="1"/><rect x="-37.5" width="450" fill="#050419" y="-37.499999" height="449.999989" fill-opacity="1"/><g clip-path="url(#0403513209)"><g clip-path="url(#753e150f87)"><path fill="#0558ee" d="M 28.539062 162.441406 L 77.9375 162.441406 L 77.9375 199.523438 L 28.539062 199.523438 Z M 28.539062 162.441406 " fill-opacity="1" fill-rule="nonzero"/></g></g><g mask="url(#5a447a5353)"><g transform="matrix(1, 0, 0, 1, 21, 155)"><g clip-path="url(#277e62dc7a)"><g clip-path="url(#880345f62f)"><g clip-path="url(#78d2b93a5e)"><path fill="#21e8e6" d="M 0.753906 0.613281 L 50.152344 0.613281 L 50.152344 37.699219 L 0.753906 37.699219 Z M 0.753906 0.613281 " fill-opacity="1" fill-rule="nonzero"/></g></g></g></g></g><g fill="#ffffff" fill-opacity="1"><g transform="translate(84.865561, 192.53902)"><g><path d="M 12.4375 0.125 L 12.4375 -25.390625 L 21.390625 -25.390625 L 21.390625 -29.71875 L -0.84375 -29.71875 L -0.84375 -25.390625 L 8.15625 -25.390625 L 8.15625 0.125 Z M 12.4375 0.125 "/></g></g></g><g fill="#ffffff" fill-opacity="1"><g transform="translate(108.174538, 192.53902)"><g><path d="M 4.84375 -12.6875 L 18.296875 -12.6875 L 18.296875 -17.03125 L 4.84375 -17.03125 L 4.84375 -25.390625 L 18.59375 -25.390625 L 18.59375 -29.671875 L 0.515625 -29.671875 L 0.515625 0 L 18.640625 0 L 18.640625 -4.28125 L 4.84375 -4.28125 Z M 4.84375 -12.6875 "/></g></g></g><g fill="#ffffff" fill-opacity="1"><g transform="translate(128.68135, 192.53902)"><g><path d="M 0.125 -14.78125 C 0.125 -10.65625 1.828125 -6.921875 4.375 -4.203125 C 6.96875 -1.484375 10.609375 0.21875 14.640625 0.21875 C 21.5625 0.21875 27 -4.375 28.703125 -11.125 L 24.5 -11.125 C 22.96875 -6.625 19.140625 -4.03125 14.640625 -4.03125 C 11.796875 -4.03125 9.21875 -5.265625 7.34375 -7.21875 C 5.46875 -9.171875 4.28125 -11.796875 4.28125 -14.78125 C 4.28125 -17.828125 5.46875 -20.46875 7.34375 -22.421875 C 9.21875 -24.375 11.796875 -25.59375 14.640625 -25.59375 C 19.015625 -25.59375 22.671875 -23.34375 24.234375 -18.890625 L 28.484375 -18.890625 C 26.78125 -25.59375 21.4375 -29.84375 14.640625 -29.84375 C 10.609375 -29.84375 6.96875 -28.109375 4.375 -25.421875 C 1.828125 -22.71875 0.125 -18.96875 0.125 -14.78125 Z M 0.125 -14.78125 "/></g></g></g><g fill="#ffffff" fill-opacity="1"><g transform="translate(159.46277, 192.53902)"><g><path d="M 4.921875 -29.671875 L 0.640625 -29.671875 L 0.640625 0 L 4.921875 0 L 4.921875 -12.90625 L 17.484375 -12.90625 L 17.484375 0 L 21.828125 0 L 21.828125 -29.671875 L 17.484375 -29.671875 L 17.484375 -17.15625 L 4.921875 -17.15625 Z M 4.921875 -29.671875 "/></g></g></g><g fill="#ffffff" fill-opacity="1"><g transform="translate(184.002998, 192.53902)"><g><path d="M 4.96875 0 L 4.96875 -20.765625 L 19.3125 0 L 22.71875 0 L 22.71875 -29.71875 L 18.46875 -29.71875 L 18.46875 -8.78125 L 3.984375 -29.71875 L 0.671875 -29.765625 L 0.671875 0 Z M 4.96875 0 "/></g></g></g><g fill="#ffffff" fill-opacity="1"><g transform="translate(209.604643, 192.53902)"><g><path d="M 25.859375 -14.859375 C 25.859375 -11.796875 24.625 -9.125 22.71875 -7.171875 C 20.71875 -5.171875 17.953125 -3.953125 15.03125 -3.953125 C 12.09375 -3.953125 9.375 -5.171875 7.421875 -7.171875 C 5.46875 -9.125 4.25 -11.84375 4.25 -14.859375 C 4.25 -17.875 5.46875 -20.59375 7.421875 -22.546875 C 9.375 -24.53125 12.09375 -25.765625 15.03125 -25.765625 C 17.953125 -25.765625 20.71875 -24.53125 22.71875 -22.546875 C 24.625 -20.59375 25.859375 -17.921875 25.859375 -14.859375 Z M -0.078125 -14.859375 C -0.078125 -10.65625 1.65625 -6.875 4.328125 -4.125 C 7.046875 -1.3125 10.875 0.375 15.03125 0.375 C 19.234375 0.375 23.015625 -1.3125 25.765625 -4.125 C 28.4375 -6.875 30.1875 -10.65625 30.1875 -14.859375 C 30.1875 -19.0625 28.4375 -22.84375 25.765625 -25.59375 C 23.015625 -28.359375 19.234375 -30.09375 15.03125 -30.09375 C 10.875 -30.09375 7.046875 -28.359375 4.328125 -25.59375 C 1.65625 -22.84375 -0.078125 -19.0625 -0.078125 -14.859375 Z M -0.078125 -14.859375 "/></g></g></g><g fill="#ffffff" fill-opacity="1"><g transform="translate(242.423985, 192.53902)"><g><path d="M 0.59375 -29.71875 L 0.59375 0 L 4.921875 0 L 4.921875 -9.890625 L 11.46875 -9.890625 C 17.875 -9.890625 21.09375 -14.8125 21.09375 -19.78125 C 21.09375 -24.75 17.875 -29.71875 11.46875 -29.71875 Z M 4.921875 -14.140625 L 4.921875 -25.390625 L 11.46875 -25.390625 C 15.078125 -25.390625 16.859375 -22.578125 16.859375 -19.734375 C 16.859375 -16.9375 15.078125 -14.140625 11.46875 -14.140625 Z M 4.921875 -14.140625 "/></g></g></g><g fill="#ffffff" fill-opacity="1"><g transform="translate(265.435763, 192.53902)"><g><path d="M 4.921875 -29.671875 L 0.640625 -29.671875 L 0.640625 0 L 4.921875 0 L 4.921875 -12.90625 L 17.484375 -12.90625 L 17.484375 0 L 21.828125 0 L 21.828125 -29.671875 L 17.484375 -29.671875 L 17.484375 -17.15625 L 4.921875 -17.15625 Z M 4.921875 -29.671875 "/></g></g></g><g fill="#ffffff" fill-opacity="1"><g transform="translate(289.975991, 192.53902)"><g><path d="M 15.078125 -29.671875 L -0.25 -29.671875 L -0.25 -25.421875 L 5.265625 -25.421875 L 5.265625 -4.28125 L -0.25 -4.28125 L -0.25 0 L 15.078125 0 L 15.078125 -4.28125 L 9.546875 -4.28125 L 9.546875 -25.421875 L 15.078125 -25.421875 Z M 15.078125 -29.671875 "/></g></g></g><g fill="#ffffff" fill-opacity="1"><g transform="translate(307.128692, 192.53902)"><g><path d="M 4.84375 -29.671875 L 0.546875 -29.671875 L 0.546875 0 L 18.8125 0 L 18.8125 -4.28125 L 4.84375 -4.28125 Z M 4.84375 -29.671875 "/></g></g></g><g fill="#ffffff" fill-opacity="1"><g transform="translate(327.720411, 192.53902)"><g><path d="M 4.84375 -12.6875 L 18.296875 -12.6875 L 18.296875 -17.03125 L 4.84375 -17.03125 L 4.84375 -25.390625 L 18.59375 -25.390625 L 18.59375 -29.671875 L 0.515625 -29.671875 L 0.515625 0 L 18.640625 0 L 18.640625 -4.28125 L 4.84375 -4.28125 Z M 4.84375 -12.6875 "/></g></g></g></svg>